<svg xmlns="http://www.w3.org/2000/svg" width="183.75" viewBox="0 0 183.75 33.75" height="33.75" version="1.0"><defs><clipPath id="a"><path d="M 5.414062 14 L 13 14 L 13 22 L 5.414062 22 Z M 5.414062 14"/></clipPath><clipPath id="b"><path d="M 24.65625 14.011719 L 29.261719 14.011719 L 29.261719 20.355469 L 24.65625 20.355469 Z M 24.65625 14.011719"/></clipPath><clipPath id="c"><path d="M 12 12.113281 L 16 12.113281 L 16 20 L 12 20 Z M 12 12.113281"/></clipPath><clipPath id="d"><path d="M 17 12.113281 L 23 12.113281 L 23 22 L 17 22 Z M 17 12.113281"/></clipPath><clipPath id="e"><path d="M 6.023438 16.855469 L 29.226562 16.855469 L 29.226562 27.019531 L 6.023438 27.019531 Z M 6.023438 16.855469"/></clipPath></defs><path fill="#A47B30" d="M 11.734375 13.589844 C 12.242188 13.824219 12.546875 14.359375 12.953125 14.746094 C 13 14.789062 13.046875 14.832031 13.074219 14.890625 C 13.125 15.003906 13.085938 15.128906 13.078125 15.253906 C 13.058594 15.753906 13.609375 16.261719 13.332031 16.675781 C 13.269531 16.769531 13.167969 16.84375 13.148438 16.953125 C 13.125 17.09375 13.246094 17.226562 13.238281 17.371094 C 13.234375 17.472656 13.164062 17.5625 13.09375 17.636719 C 12.691406 18.074219 12.214844 18.441406 11.6875 18.710938 C 11.339844 18.890625 10.96875 19.03125 10.582031 19.101562 C 10.160156 19.175781 9.699219 19.160156 9.324219 18.949219 C 9.03125 18.785156 8.8125 18.523438 8.597656 18.261719 C 8.375 17.988281 8.148438 17.714844 7.921875 17.441406 C 7.75 17.230469 7.566406 16.996094 7.546875 16.722656 C 7.539062 16.597656 7.566406 16.476562 7.59375 16.355469 C 7.648438 16.101562 7.707031 15.847656 7.761719 15.59375 C 7.835938 15.25 7.917969 14.898438 8.09375 14.589844 C 8.269531 14.285156 8.558594 14.023438 8.910156 13.980469 C 9.214844 13.4375 10.007812 13.253906 10.519531 13.609375 C 10.714844 13.3125 11.210938 13.296875 11.425781 13.578125 C 11.425781 13.578125 11.585938 13.523438 11.734375 13.589844"/><path fill="#493429" d="M 11.945312 15.261719 C 12.011719 15.289062 12.054688 15.320312 12.089844 15.359375 C 12.125 15.398438 12.148438 15.4375 12.160156 15.472656 C 12.175781 15.511719 12.195312 15.558594 12.191406 15.621094 C 12.1875 15.679688 12.148438 15.734375 12.09375 15.75 L 12 15.785156 L 12.101562 15.816406 C 12.179688 15.84375 12.230469 15.910156 12.269531 15.96875 C 12.3125 16.027344 12.339844 16.089844 12.351562 16.152344 C 12.363281 16.210938 12.375 16.277344 12.367188 16.351562 C 12.363281 16.421875 12.34375 16.496094 12.308594 16.582031 L 12.324219 16.597656 C 12.417969 16.570312 12.492188 16.496094 12.539062 16.402344 C 12.582031 16.3125 12.601562 16.199219 12.570312 16.09375 C 12.539062 15.988281 12.472656 15.902344 12.394531 15.839844 C 12.308594 15.777344 12.207031 15.757812 12.117188 15.75 L 12.125 15.816406 C 12.1875 15.773438 12.238281 15.722656 12.285156 15.660156 C 12.332031 15.597656 12.367188 15.507812 12.34375 15.417969 C 12.316406 15.328125 12.25 15.261719 12.175781 15.226562 C 12.097656 15.195312 12.007812 15.195312 11.941406 15.238281 Z M 9.402344 15.953125 C 9.3125 15.964844 9.234375 15.996094 9.160156 16.046875 C 9.089844 16.097656 9.015625 16.164062 8.988281 16.261719 C 8.972656 16.304688 8.96875 16.363281 8.976562 16.410156 C 8.980469 16.457031 8.996094 16.503906 9.007812 16.542969 C 9.023438 16.585938 9.039062 16.628906 9.058594 16.667969 C 9.082031 16.707031 9.113281 16.75 9.15625 16.78125 C 9.175781 16.796875 9.203125 16.808594 9.226562 16.816406 C 9.253906 16.824219 9.273438 16.832031 9.292969 16.835938 C 9.3125 16.839844 9.328125 16.84375 9.332031 16.847656 C 9.339844 16.855469 9.335938 16.855469 9.328125 16.851562 C 9.324219 16.847656 9.320312 16.839844 9.320312 16.847656 C 9.320312 16.855469 9.316406 16.875 9.3125 16.898438 C 9.304688 16.953125 9.3125 17.011719 9.328125 17.0625 C 9.34375 17.113281 9.371094 17.15625 9.40625 17.195312 C 9.4375 17.234375 9.476562 17.269531 9.523438 17.292969 C 9.605469 17.339844 9.714844 17.355469 9.796875 17.316406 L 9.796875 17.296875 C 9.71875 17.257812 9.664062 17.214844 9.625 17.160156 C 9.582031 17.105469 9.558594 17.050781 9.546875 16.996094 C 9.539062 16.96875 9.535156 16.941406 9.535156 16.914062 C 9.53125 16.902344 9.535156 16.878906 9.53125 16.84375 C 9.53125 16.8125 9.519531 16.765625 9.488281 16.726562 C 9.457031 16.691406 9.414062 16.671875 9.382812 16.667969 C 9.351562 16.660156 9.328125 16.660156 9.304688 16.664062 C 9.28125 16.667969 9.265625 16.667969 9.25 16.671875 C 9.234375 16.675781 9.21875 16.675781 9.203125 16.675781 C 9.175781 16.671875 9.140625 16.652344 9.117188 16.628906 C 9.09375 16.601562 9.078125 16.566406 9.074219 16.527344 C 9.070312 16.492188 9.078125 16.453125 9.089844 16.421875 C 9.105469 16.386719 9.125 16.363281 9.144531 16.335938 C 9.1875 16.285156 9.222656 16.230469 9.269531 16.171875 C 9.316406 16.109375 9.371094 16.050781 9.414062 15.96875 Z M 8.863281 15.03125 C 8.804688 15.113281 8.742188 15.183594 8.6875 15.253906 C 8.628906 15.328125 8.582031 15.398438 8.554688 15.472656 C 8.527344 15.542969 8.511719 15.621094 8.511719 15.699219 C 8.511719 15.777344 8.53125 15.855469 8.597656 15.914062 C 8.617188 15.929688 8.636719 15.945312 8.65625 15.976562 C 8.675781 16.003906 8.675781 16.042969 8.664062 16.074219 C 8.644531 16.132812 8.601562 16.164062 8.566406 16.199219 C 8.503906 16.261719 8.460938 16.34375 8.445312 16.425781 C 8.4375 16.464844 8.4375 16.503906 8.445312 16.539062 C 8.449219 16.566406 8.464844 16.597656 8.484375 16.625 C 8.519531 16.679688 8.582031 16.703125 8.617188 16.691406 L 9.5625 16.382812 L 8.6875 16.902344 C 8.601562 16.957031 8.535156 17.082031 8.558594 17.199219 C 8.566406 17.253906 8.601562 17.316406 8.652344 17.363281 C 8.703125 17.410156 8.769531 17.445312 8.851562 17.457031 L 8.855469 17.476562 C 8.773438 17.511719 8.675781 17.503906 8.585938 17.464844 C 8.5 17.429688 8.421875 17.355469 8.378906 17.257812 C 8.339844 17.15625 8.339844 17.046875 8.375 16.945312 C 8.410156 16.847656 8.480469 16.757812 8.582031 16.703125 L 8.652344 16.917969 C 8.324219 16.9375 8.191406 16.566406 8.3125 16.378906 C 8.367188 16.277344 8.441406 16.207031 8.519531 16.144531 C 8.558594 16.117188 8.59375 16.085938 8.605469 16.054688 C 8.613281 16.023438 8.59375 16.003906 8.550781 15.980469 C 8.457031 15.9375 8.375 15.835938 8.347656 15.726562 C 8.316406 15.613281 8.332031 15.496094 8.382812 15.394531 C 8.433594 15.292969 8.507812 15.214844 8.589844 15.15625 C 8.671875 15.09375 8.757812 15.050781 8.851562 15.015625 L 8.863281 15.03125"/><g clip-path="url(#a)"><path fill="#518845" d="M 8.3125 20.25 C 8.070312 19.589844 7.742188 18.960938 7.417969 18.335938 C 6.753906 17.058594 6.089844 15.78125 5.425781 14.503906 C 6.347656 14.84375 6.996094 15.65625 7.601562 16.433594 C 7.507812 16.171875 7.859375 15.886719 8.09375 16.03125 C 8.191406 16.089844 8.253906 16.191406 8.308594 16.292969 C 8.460938 16.558594 8.609375 16.820312 8.761719 17.085938 C 9.117188 16.898438 9.125 16.394531 9.078125 15.992188 C 9.03125 15.589844 9.019531 15.089844 9.363281 14.882812 C 9.792969 15.863281 10.128906 16.878906 10.375 17.921875 C 10.542969 17.953125 10.582031 17.683594 10.714844 17.570312 C 10.929688 17.378906 11.222656 17.6875 11.335938 17.953125 C 11.824219 19.089844 12.1875 20.28125 12.414062 21.5 C 11.332031 21.242188 10.261719 20.933594 9.207031 20.582031 L 8.3125 20.25"/></g><g clip-path="url(#b)"><path fill="#518845" d="M 24.675781 20.347656 C 25.230469 18.863281 25.785156 17.382812 26.339844 15.898438 C 26.472656 15.546875 26.625 15.167969 26.945312 14.972656 C 27.027344 15.53125 27.144531 16.082031 27.292969 16.625 C 27.71875 15.828125 28.207031 15.066406 28.746094 14.347656 C 28.875 14.175781 29.050781 13.992188 29.261719 14.027344 C 29.1875 14.410156 29.066406 14.777344 28.945312 15.144531 C 28.632812 16.097656 28.320312 17.046875 28.007812 18 C 27.804688 18.609375 27.496094 19.320312 26.867188 19.433594 L 24.675781 20.347656"/></g><g clip-path="url(#c)"><path fill="#518845" d="M 12.699219 19.515625 C 12.789062 17.933594 12.882812 16.351562 12.976562 14.769531 C 12.996094 14.390625 13.03125 13.984375 13.28125 13.703125 C 13.523438 14.210938 13.796875 14.703125 14.097656 15.179688 C 14.273438 14.292969 14.511719 13.421875 14.816406 12.570312 C 14.890625 12.371094 15.003906 12.140625 15.214844 12.113281 C 15.257812 12.496094 15.25 12.886719 15.242188 13.273438 C 15.222656 14.277344 15.203125 15.277344 15.183594 16.277344 C 15.171875 16.921875 15.089844 17.691406 14.519531 17.988281 L 12.699219 19.515625"/></g><path fill="#C74137" d="M 25.203125 13.058594 C 23.84375 13.058594 22.738281 14.167969 22.738281 15.535156 C 22.738281 16.902344 23.84375 18.011719 25.203125 18.011719 C 26.5625 18.011719 27.664062 16.902344 27.664062 15.535156 C 27.664062 14.167969 26.5625 13.058594 25.203125 13.058594 Z M 14.253906 18.75 C 14.253906 20.117188 13.148438 21.222656 11.789062 21.222656 C 10.429688 21.222656 9.328125 20.117188 9.328125 18.75 C 9.328125 17.382812 10.429688 16.273438 11.789062 16.273438 C 13.148438 16.273438 14.253906 17.382812 14.253906 18.75"/><path fill="#A47B30" d="M 15.210938 15.601562 C 15.464844 15.261719 16.0625 15.28125 16.296875 15.636719 C 16.902344 15.214844 17.851562 15.433594 18.21875 16.078125 C 18.636719 16.132812 18.984375 16.445312 19.195312 16.808594 C 19.40625 17.175781 19.5 17.597656 19.589844 18.007812 C 19.65625 18.3125 19.722656 18.617188 19.789062 18.921875 C 19.824219 19.0625 19.855469 19.210938 19.84375 19.355469 C 19.824219 19.683594 19.605469 19.964844 19.394531 20.21875 C 19.128906 20.542969 18.859375 20.871094 18.589844 21.199219 C 18.335938 21.507812 18.070312 21.824219 17.722656 22.019531 C 17.273438 22.269531 16.726562 22.289062 16.21875 22.199219 C 15.757812 22.117188 15.3125 21.949219 14.894531 21.734375 C 14.265625 21.410156 13.695312 20.972656 13.21875 20.449219 C 13.132812 20.359375 13.050781 20.253906 13.042969 20.132812 C 13.035156 19.960938 13.179688 19.800781 13.148438 19.632812 C 13.125 19.5 13.007812 19.414062 12.933594 19.304688 C 12.597656 18.808594 13.261719 18.199219 13.234375 17.601562 C 13.226562 17.453125 13.179688 17.300781 13.238281 17.167969 C 13.269531 17.101562 13.328125 17.046875 13.382812 16.992188 C 13.867188 16.535156 14.234375 15.894531 14.84375 15.617188 C 15.019531 15.535156 15.210938 15.601562 15.210938 15.601562"/><path fill="#493429" d="M 15.800781 18.570312 C 15.855469 18.574219 15.886719 18.574219 15.917969 18.574219 C 15.949219 18.574219 15.976562 18.574219 16 18.554688 C 16.027344 18.539062 16.058594 18.503906 16.089844 18.5 C 16.125 18.496094 16.15625 18.519531 16.175781 18.550781 C 16.195312 18.582031 16.203125 18.609375 16.21875 18.632812 C 16.234375 18.65625 16.242188 18.679688 16.257812 18.703125 C 16.292969 18.742188 16.332031 18.777344 16.394531 18.855469 L 16.414062 18.855469 C 16.492188 18.785156 16.496094 18.671875 16.453125 18.585938 C 16.433594 18.542969 16.398438 18.511719 16.359375 18.484375 C 16.320312 18.457031 16.273438 18.445312 16.226562 18.445312 C 16.179688 18.441406 16.140625 18.445312 16.101562 18.433594 C 16.0625 18.421875 16.019531 18.386719 15.972656 18.378906 C 15.925781 18.375 15.882812 18.394531 15.847656 18.425781 C 15.8125 18.457031 15.785156 18.5 15.785156 18.554688 Z M 17.960938 16.757812 C 17.960938 16.785156 17.964844 16.808594 17.964844 16.824219 C 17.96875 16.84375 17.972656 16.863281 17.980469 16.878906 C 17.984375 16.894531 17.992188 16.90625 18 16.917969 C 18.007812 16.933594 18.015625 16.945312 18.03125 16.953125 C 18.058594 16.96875 18.105469 16.980469 18.125 17.007812 C 18.136719 17.019531 18.140625 17.035156 18.144531 17.050781 C 18.148438 17.066406 18.144531 17.085938 18.144531 17.105469 C 18.132812 17.140625 18.128906 17.175781 18.128906 17.207031 C 18.128906 17.238281 18.125 17.265625 18.132812 17.296875 C 18.148438 17.351562 18.175781 17.410156 18.234375 17.484375 L 18.253906 17.488281 C 18.332031 17.429688 18.355469 17.347656 18.355469 17.269531 C 18.355469 17.230469 18.339844 17.191406 18.324219 17.15625 C 18.316406 17.140625 18.308594 17.121094 18.292969 17.105469 C 18.28125 17.089844 18.265625 17.078125 18.25 17.0625 C 18.21875 17.035156 18.195312 17.011719 18.1875 16.976562 C 18.175781 16.941406 18.1875 16.890625 18.175781 16.851562 C 18.167969 16.8125 18.136719 16.789062 18.101562 16.765625 C 18.070312 16.746094 18.027344 16.734375 17.976562 16.742188 Z M 17.027344 17.003906 C 17.078125 17.039062 17.113281 17.066406 17.144531 17.101562 C 17.179688 17.132812 17.207031 17.164062 17.230469 17.195312 C 17.253906 17.230469 17.28125 17.257812 17.3125 17.292969 C 17.339844 17.324219 17.367188 17.371094 17.367188 17.417969 L 17.367188 17.464844 L 17.40625 17.457031 C 17.441406 17.445312 17.484375 17.453125 17.515625 17.472656 C 17.546875 17.496094 17.570312 17.527344 17.585938 17.558594 C 17.605469 17.589844 17.617188 17.621094 17.628906 17.652344 C 17.640625 17.683594 17.648438 17.714844 17.648438 17.746094 C 17.65625 17.8125 17.660156 17.878906 17.65625 17.957031 C 17.652344 18.035156 17.644531 18.121094 17.648438 18.21875 L 17.667969 18.226562 C 17.742188 18.167969 17.800781 18.09375 17.839844 18.003906 C 17.878906 17.914062 17.894531 17.808594 17.871094 17.703125 C 17.855469 17.648438 17.832031 17.601562 17.800781 17.554688 C 17.769531 17.511719 17.730469 17.472656 17.6875 17.449219 C 17.640625 17.421875 17.589844 17.40625 17.542969 17.398438 C 17.492188 17.386719 17.445312 17.386719 17.398438 17.386719 L 17.433594 17.425781 C 17.445312 17.367188 17.457031 17.304688 17.449219 17.242188 C 17.445312 17.175781 17.417969 17.113281 17.371094 17.070312 C 17.328125 17.023438 17.273438 16.988281 17.210938 16.972656 C 17.152344 16.957031 17.085938 16.953125 17.03125 16.984375 Z M 14.765625 16.839844 C 14.664062 16.851562 14.574219 16.890625 14.492188 16.949219 C 14.410156 17.003906 14.332031 17.089844 14.3125 17.203125 C 14.300781 17.257812 14.304688 17.316406 14.3125 17.367188 C 14.320312 17.417969 14.332031 17.464844 14.347656 17.515625 C 14.363281 17.5625 14.382812 17.609375 14.414062 17.65625 C 14.445312 17.703125 14.496094 17.746094 14.558594 17.761719 L 14.523438 17.617188 C 14.453125 17.648438 14.386719 17.691406 14.320312 17.75 C 14.257812 17.808594 14.195312 17.890625 14.183594 17.996094 C 14.171875 18.050781 14.183594 18.113281 14.207031 18.160156 C 14.230469 18.207031 14.261719 18.246094 14.300781 18.277344 C 14.339844 18.308594 14.390625 18.328125 14.441406 18.328125 C 14.492188 18.332031 14.542969 18.308594 14.566406 18.269531 L 14.554688 18.253906 C 14.476562 18.261719 14.441406 18.214844 14.414062 18.167969 C 14.386719 18.121094 14.386719 18.066406 14.398438 18.039062 C 14.414062 17.996094 14.4375 17.949219 14.476562 17.898438 C 14.515625 17.851562 14.566406 17.804688 14.617188 17.75 L 14.785156 17.570312 L 14.585938 17.601562 C 14.554688 17.605469 14.519531 17.601562 14.484375 17.582031 C 14.453125 17.5625 14.425781 17.53125 14.410156 17.492188 C 14.394531 17.453125 14.390625 17.410156 14.398438 17.367188 C 14.410156 17.324219 14.429688 17.289062 14.453125 17.261719 C 14.507812 17.203125 14.550781 17.140625 14.605469 17.078125 C 14.660156 17.011719 14.722656 16.945312 14.777344 16.855469 Z M 13.90625 18.210938 C 13.867188 18.277344 13.84375 18.332031 13.828125 18.390625 C 13.8125 18.445312 13.808594 18.496094 13.792969 18.550781 C 13.78125 18.605469 13.761719 18.675781 13.789062 18.734375 C 13.800781 18.761719 13.824219 18.785156 13.851562 18.816406 C 13.863281 18.832031 13.875 18.851562 13.882812 18.878906 C 13.890625 18.902344 13.894531 18.929688 13.890625 18.953125 C 13.886719 19 13.875 19.042969 13.863281 19.074219 C 13.859375 19.089844 13.855469 19.105469 13.851562 19.113281 C 13.851562 19.121094 13.851562 19.125 13.851562 19.128906 L 13.851562 19.148438 C 13.847656 19.191406 13.867188 19.230469 13.886719 19.273438 C 13.90625 19.320312 13.933594 19.363281 13.972656 19.402344 C 14.011719 19.441406 14.058594 19.476562 14.132812 19.492188 L 14.136719 19.511719 C 14.078125 19.570312 13.976562 19.578125 13.894531 19.550781 C 13.808594 19.523438 13.738281 19.460938 13.6875 19.386719 C 13.640625 19.308594 13.625 19.203125 13.652344 19.109375 C 13.660156 19.085938 13.667969 19.0625 13.679688 19.039062 C 13.691406 19.019531 13.703125 19 13.714844 18.988281 C 13.742188 18.960938 13.765625 18.941406 13.78125 18.921875 C 13.796875 18.902344 13.804688 18.882812 13.789062 18.855469 C 13.777344 18.832031 13.753906 18.800781 13.730469 18.769531 C 13.683594 18.710938 13.632812 18.636719 13.617188 18.550781 C 13.605469 18.464844 13.636719 18.378906 13.683594 18.3125 C 13.734375 18.242188 13.8125 18.191406 13.894531 18.191406 L 13.90625 18.210938"/><g clip-path="url(#d)"><path fill="#518845" d="M 20.742188 19.429688 C 19.894531 20.152344 19.011719 20.835938 18.105469 21.480469 C 17.867188 20.265625 17.761719 19.023438 17.792969 17.78125 C 17.800781 17.496094 17.960938 17.097656 18.230469 17.195312 C 18.394531 17.253906 18.53125 17.488281 18.675781 17.394531 C 18.519531 16.335938 18.457031 15.265625 18.492188 14.195312 C 18.890625 14.261719 19.0625 14.726562 19.167969 15.121094 C 19.273438 15.511719 19.464844 15.976562 19.867188 16.019531 C 19.90625 15.714844 19.949219 15.414062 19.992188 15.113281 C 20.007812 15 20.023438 14.878906 20.09375 14.789062 C 20.257812 14.566406 20.691406 14.699219 20.703125 14.976562 C 20.972656 14.03125 21.277344 13.03125 22.007812 12.375 C 21.863281 13.808594 21.71875 15.242188 21.574219 16.675781 C 21.503906 17.378906 21.433594 18.082031 21.453125 18.785156 L 20.742188 19.429688"/></g><path fill="#A47B30" d="M 26.867188 17.441406 C 27.148438 17.761719 27.007812 18.34375 26.613281 18.503906 C 26.902344 19.1875 26.5 20.078125 25.796875 20.308594 C 25.65625 20.707031 25.285156 20.988281 24.886719 21.121094 C 24.488281 21.253906 24.058594 21.261719 23.636719 21.265625 C 23.328125 21.269531 23.019531 21.277344 22.707031 21.28125 C 22.5625 21.28125 22.414062 21.285156 22.273438 21.246094 C 21.957031 21.160156 21.730469 20.886719 21.523438 20.628906 C 21.261719 20.300781 20.996094 19.96875 20.734375 19.636719 C 20.484375 19.324219 20.226562 19 20.109375 18.617188 C 19.953125 18.121094 20.046875 17.578125 20.238281 17.097656 C 20.410156 16.660156 20.664062 16.257812 20.957031 15.890625 C 21.402344 15.339844 21.941406 14.863281 22.546875 14.5 C 22.652344 14.433594 22.773438 14.371094 22.894531 14.390625 C 23.0625 14.417969 23.1875 14.59375 23.359375 14.597656 C 23.492188 14.601562 23.601562 14.5 23.722656 14.449219 C 24.273438 14.222656 24.734375 14.996094 25.320312 15.09375 C 25.464844 15.113281 25.621094 15.097656 25.738281 15.183594 C 25.800781 15.230469 25.84375 15.296875 25.882812 15.359375 C 26.230469 15.933594 26.78125 16.421875 26.929688 17.074219 C 26.972656 17.269531 26.867188 17.441406 26.867188 17.441406"/><path fill="#493429" d="M 26.457031 17.277344 C 26.449219 17.335938 26.445312 17.378906 26.4375 17.421875 C 26.429688 17.460938 26.421875 17.5 26.417969 17.539062 C 26.410156 17.574219 26.417969 17.617188 26.410156 17.664062 C 26.402344 17.710938 26.375 17.75 26.332031 17.769531 L 26.289062 17.792969 L 26.332031 17.828125 C 26.378906 17.867188 26.386719 17.933594 26.386719 17.980469 C 26.390625 18.03125 26.382812 18.082031 26.371094 18.128906 C 26.363281 18.175781 26.355469 18.222656 26.339844 18.269531 C 26.320312 18.316406 26.296875 18.367188 26.246094 18.421875 L 26.253906 18.441406 C 26.328125 18.464844 26.417969 18.4375 26.480469 18.378906 C 26.542969 18.324219 26.585938 18.246094 26.597656 18.164062 C 26.605469 18.082031 26.589844 17.996094 26.554688 17.921875 C 26.511719 17.847656 26.433594 17.800781 26.371094 17.769531 L 26.371094 17.828125 C 26.414062 17.792969 26.453125 17.757812 26.5 17.722656 C 26.542969 17.6875 26.589844 17.636719 26.601562 17.578125 C 26.617188 17.519531 26.613281 17.457031 26.589844 17.398438 C 26.570312 17.34375 26.53125 17.292969 26.472656 17.265625 Z M 25.832031 16.074219 C 25.871094 16.132812 25.898438 16.175781 25.921875 16.21875 C 25.949219 16.261719 25.96875 16.300781 26 16.339844 C 26.03125 16.375 26.078125 16.417969 26.089844 16.472656 C 26.097656 16.53125 26.078125 16.582031 26.039062 16.628906 C 26.023438 16.652344 26.003906 16.679688 25.988281 16.710938 C 25.972656 16.746094 25.96875 16.789062 25.96875 16.828125 C 25.96875 16.90625 25.988281 16.972656 26.011719 17.027344 C 26.035156 17.078125 26.054688 17.109375 26.070312 17.15625 C 26.082031 17.199219 26.097656 17.238281 26.074219 17.300781 L 26.085938 17.320312 C 26.125 17.316406 26.160156 17.296875 26.1875 17.265625 C 26.210938 17.234375 26.226562 17.195312 26.238281 17.160156 C 26.253906 17.085938 26.238281 17.003906 26.222656 16.945312 C 26.203125 16.886719 26.179688 16.84375 26.167969 16.808594 C 26.160156 16.785156 26.160156 16.769531 26.15625 16.746094 C 26.152344 16.722656 26.152344 16.695312 26.152344 16.664062 C 26.152344 16.597656 26.152344 16.53125 26.15625 16.46875 C 26.160156 16.410156 26.175781 16.335938 26.160156 16.265625 C 26.144531 16.195312 26.09375 16.140625 26.039062 16.097656 C 25.980469 16.058594 25.910156 16.039062 25.839844 16.054688 Z M 22.316406 16.640625 C 22.246094 16.65625 22.183594 16.6875 22.125 16.734375 C 22.070312 16.777344 22.019531 16.839844 21.996094 16.917969 C 21.972656 17.003906 22 17.089844 22.042969 17.15625 C 22.085938 17.21875 22.136719 17.277344 22.210938 17.304688 L 22.1875 17.253906 C 22.140625 17.320312 22.070312 17.375 22.015625 17.4375 C 21.992188 17.46875 21.96875 17.503906 21.941406 17.539062 C 21.917969 17.570312 21.894531 17.601562 21.867188 17.65625 C 21.855469 17.683594 21.847656 17.71875 21.847656 17.757812 C 21.847656 17.777344 21.851562 17.792969 21.855469 17.8125 C 21.859375 17.832031 21.867188 17.851562 21.878906 17.867188 C 21.898438 17.90625 21.925781 17.929688 21.957031 17.945312 C 21.984375 17.964844 22.015625 17.972656 22.042969 17.976562 C 22.097656 17.984375 22.144531 17.976562 22.191406 17.964844 C 22.234375 17.953125 22.277344 17.933594 22.316406 17.902344 L 22.308594 17.882812 C 22.222656 17.859375 22.144531 17.835938 22.09375 17.804688 C 22.070312 17.789062 22.0625 17.769531 22.070312 17.769531 C 22.070312 17.769531 22.070312 17.765625 22.070312 17.761719 C 22.074219 17.757812 22.074219 17.753906 22.078125 17.742188 C 22.085938 17.722656 22.105469 17.683594 22.121094 17.644531 C 22.140625 17.605469 22.15625 17.570312 22.171875 17.53125 C 22.203125 17.453125 22.21875 17.367188 22.25 17.289062 L 22.273438 17.242188 L 22.230469 17.238281 C 22.175781 17.230469 22.136719 17.179688 22.136719 17.121094 C 22.136719 17.066406 22.164062 17.015625 22.175781 16.980469 C 22.195312 16.933594 22.214844 16.886719 22.246094 16.835938 C 22.273438 16.78125 22.304688 16.726562 22.332031 16.65625 Z M 20.949219 17.820312 C 20.898438 17.757812 20.886719 17.703125 20.882812 17.648438 C 20.875 17.589844 20.886719 17.539062 20.894531 17.488281 C 20.898438 17.433594 20.917969 17.359375 20.972656 17.3125 C 21.023438 17.265625 21.097656 17.25 21.167969 17.25 C 21.207031 17.25 21.25 17.25 21.300781 17.230469 C 21.324219 17.21875 21.351562 17.203125 21.375 17.175781 C 21.398438 17.148438 21.414062 17.113281 21.417969 17.082031 C 21.429688 17.023438 21.425781 16.984375 21.433594 16.96875 C 21.4375 16.949219 21.445312 16.933594 21.457031 16.914062 C 21.476562 16.871094 21.511719 16.832031 21.558594 16.800781 C 21.605469 16.765625 21.664062 16.742188 21.742188 16.742188 L 21.753906 16.726562 C 21.703125 16.652344 21.597656 16.625 21.507812 16.640625 C 21.414062 16.652344 21.324219 16.707031 21.265625 16.792969 C 21.234375 16.835938 21.214844 16.890625 21.214844 16.945312 C 21.210938 17.003906 21.21875 17.039062 21.21875 17.050781 C 21.222656 17.058594 21.222656 17.058594 21.222656 17.0625 C 21.222656 17.066406 21.222656 17.074219 21.214844 17.082031 C 21.199219 17.097656 21.171875 17.121094 21.136719 17.136719 C 21.066406 17.175781 21 17.21875 20.933594 17.257812 C 20.867188 17.296875 20.78125 17.335938 20.730469 17.417969 C 20.679688 17.503906 20.683594 17.613281 20.722656 17.699219 C 20.761719 17.785156 20.851562 17.855469 20.945312 17.84375 Z M 21.496094 18.125 C 21.5 18.15625 21.5 18.183594 21.5 18.207031 C 21.503906 18.230469 21.5 18.253906 21.5 18.273438 C 21.5 18.296875 21.496094 18.316406 21.492188 18.335938 C 21.492188 18.355469 21.488281 18.375 21.476562 18.394531 C 21.46875 18.414062 21.457031 18.433594 21.445312 18.453125 C 21.4375 18.476562 21.425781 18.5 21.425781 18.523438 C 21.425781 18.542969 21.429688 18.566406 21.4375 18.585938 C 21.449219 18.609375 21.460938 18.628906 21.476562 18.644531 C 21.511719 18.679688 21.542969 18.710938 21.566406 18.742188 C 21.582031 18.757812 21.59375 18.773438 21.609375 18.785156 C 21.621094 18.800781 21.636719 18.816406 21.644531 18.832031 C 21.691406 18.894531 21.734375 18.957031 21.800781 19.050781 L 21.792969 19.070312 C 21.679688 19.109375 21.5625 19.0625 21.480469 18.984375 C 21.460938 18.964844 21.445312 18.941406 21.429688 18.917969 C 21.414062 18.894531 21.402344 18.867188 21.394531 18.84375 C 21.382812 18.816406 21.375 18.792969 21.371094 18.765625 C 21.367188 18.738281 21.367188 18.710938 21.367188 18.683594 C 21.367188 18.65625 21.371094 18.628906 21.367188 18.601562 C 21.367188 18.578125 21.363281 18.554688 21.355469 18.53125 C 21.351562 18.503906 21.339844 18.480469 21.328125 18.457031 C 21.316406 18.429688 21.308594 18.402344 21.300781 18.375 C 21.296875 18.347656 21.300781 18.320312 21.308594 18.292969 C 21.316406 18.265625 21.328125 18.242188 21.34375 18.21875 C 21.359375 18.195312 21.378906 18.171875 21.398438 18.152344 C 21.421875 18.136719 21.449219 18.121094 21.476562 18.113281 L 21.496094 18.125"/><g clip-path="url(#e)"><path fill="#F8D893" d="M 6.105469 18.800781 C 6.105469 18.800781 5.90625 17.808594 6.234375 17.675781 C 6.566406 17.542969 10.191406 19.53125 17.839844 19.53125 C 25.488281 19.53125 28.390625 16.878906 28.390625 16.878906 C 28.390625 16.878906 29.246094 16.945312 29.179688 17.34375 C 29.113281 17.742188 29.097656 18.214844 28.917969 18.46875 C 28.777344 18.664062 28.324219 19.730469 28.191406 20.523438 C 28.058594 21.320312 24.828125 27.019531 18.039062 27.019531 C 11.246094 27.019531 7.554688 22.644531 6.761719 19.929688 C 6.5 19.464844 6.105469 18.800781 6.105469 18.800781"/></g><path fill="#A47B30" d="M 24.269531 20.144531 C 24.261719 20.257812 24.289062 20.355469 24.324219 20.449219 C 24.359375 20.539062 24.402344 20.625 24.476562 20.691406 C 24.554688 20.753906 24.65625 20.796875 24.722656 20.863281 C 24.789062 20.929688 24.835938 21.015625 24.867188 21.109375 C 24.886719 21.15625 24.90625 21.207031 24.925781 21.25 C 24.949219 21.292969 24.976562 21.332031 25.003906 21.375 C 25.058594 21.453125 25.113281 21.535156 25.183594 21.597656 C 25.253906 21.664062 25.335938 21.71875 25.421875 21.765625 C 25.511719 21.8125 25.605469 21.851562 25.714844 21.871094 L 25.738281 21.84375 C 25.722656 21.789062 25.703125 21.742188 25.683594 21.695312 C 25.664062 21.648438 25.640625 21.605469 25.617188 21.5625 C 25.566406 21.480469 25.515625 21.40625 25.453125 21.335938 C 25.394531 21.265625 25.324219 21.207031 25.25 21.148438 C 25.183594 21.085938 25.105469 21.035156 25.015625 20.984375 C 24.933594 20.9375 24.859375 20.875 24.8125 20.792969 C 24.761719 20.714844 24.753906 20.605469 24.71875 20.515625 C 24.699219 20.472656 24.675781 20.433594 24.644531 20.398438 C 24.617188 20.359375 24.585938 20.328125 24.550781 20.292969 C 24.519531 20.261719 24.480469 20.230469 24.441406 20.203125 C 24.398438 20.171875 24.355469 20.144531 24.300781 20.125 Z M 21.277344 20.484375 C 21.328125 20.675781 21.410156 20.847656 21.5 21.015625 C 21.59375 21.179688 21.691406 21.34375 21.816406 21.480469 C 21.945312 21.621094 22.101562 21.738281 22.222656 21.886719 C 22.34375 22.027344 22.4375 22.191406 22.523438 22.363281 C 22.566406 22.445312 22.609375 22.53125 22.65625 22.613281 C 22.703125 22.699219 22.757812 22.777344 22.808594 22.855469 C 22.914062 23.011719 23.015625 23.171875 23.136719 23.316406 C 23.257812 23.460938 23.386719 23.597656 23.523438 23.726562 C 23.664062 23.855469 23.808594 23.980469 23.972656 24.089844 L 24 24.066406 C 23.929688 23.882812 23.835938 23.714844 23.742188 23.550781 C 23.648438 23.386719 23.542969 23.230469 23.433594 23.082031 C 23.324219 22.929688 23.199219 22.789062 23.074219 22.648438 C 22.953125 22.507812 22.820312 22.375 22.679688 22.246094 C 22.609375 22.179688 22.542969 22.113281 22.480469 22.042969 C 22.421875 21.972656 22.363281 21.894531 22.3125 21.816406 C 22.210938 21.660156 22.148438 21.472656 22.058594 21.308594 C 22.011719 21.226562 21.960938 21.148438 21.902344 21.074219 C 21.847656 21 21.789062 20.925781 21.726562 20.855469 C 21.601562 20.714844 21.46875 20.578125 21.308594 20.464844 Z M 17.4375 21.074219 C 17.503906 21.3125 17.601562 21.535156 17.714844 21.75 C 17.828125 21.960938 17.945312 22.171875 18.09375 22.359375 C 18.242188 22.546875 18.421875 22.714844 18.566406 22.90625 C 18.710938 23.097656 18.828125 23.308594 18.9375 23.523438 C 18.996094 23.628906 19.050781 23.738281 19.109375 23.84375 C 19.167969 23.949219 19.234375 24.050781 19.296875 24.152344 C 19.425781 24.355469 19.558594 24.554688 19.703125 24.746094 C 19.851562 24.933594 20.011719 25.117188 20.179688 25.289062 C 20.347656 25.460938 20.519531 25.632812 20.714844 25.78125 L 20.742188 25.757812 C 20.691406 25.644531 20.636719 25.539062 20.578125 25.433594 C 20.519531 25.324219 20.460938 25.222656 20.398438 25.117188 C 20.277344 24.914062 20.144531 24.714844 20.007812 24.519531 C 19.9375 24.421875 19.867188 24.324219 19.792969 24.234375 C 19.71875 24.140625 19.644531 24.046875 19.570312 23.953125 C 19.421875 23.765625 19.261719 23.585938 19.097656 23.410156 C 19.015625 23.324219 18.9375 23.234375 18.863281 23.136719 C 18.789062 23.042969 18.722656 22.945312 18.660156 22.84375 C 18.535156 22.640625 18.453125 22.410156 18.339844 22.195312 C 18.285156 22.089844 18.222656 21.988281 18.152344 21.890625 C 18.085938 21.792969 18.019531 21.695312 17.945312 21.601562 C 17.875 21.503906 17.800781 21.410156 17.71875 21.320312 C 17.640625 21.226562 17.558594 21.136719 17.464844 21.054688 Z M 14.433594 20.980469 C 14.5 21.21875 14.59375 21.441406 14.699219 21.65625 C 14.753906 21.765625 14.808594 21.871094 14.867188 21.976562 C 14.925781 22.082031 14.992188 22.183594 15.0625 22.28125 C 15.207031 22.472656 15.378906 22.648438 15.507812 22.847656 C 15.644531 23.046875 15.75 23.265625 15.847656 23.488281 C 15.894531 23.597656 15.941406 23.710938 15.992188 23.820312 C 16.042969 23.925781 16.101562 24.035156 16.15625 24.140625 C 16.269531 24.351562 16.378906 24.566406 16.507812 24.769531 C 16.636719 24.96875 16.773438 25.167969 16.921875 25.359375 C 17.066406 25.550781 17.21875 25.738281 17.394531 25.914062 L 17.425781 25.894531 C 17.351562 25.65625 17.257812 25.433594 17.160156 25.214844 C 17.058594 24.996094 16.949219 24.78125 16.832031 24.570312 C 16.710938 24.363281 16.578125 24.164062 16.441406 23.964844 C 16.375 23.867188 16.308594 23.765625 16.234375 23.671875 C 16.164062 23.574219 16.085938 23.480469 16.011719 23.386719 C 15.859375 23.199219 15.71875 23.003906 15.605469 22.789062 C 15.492188 22.578125 15.417969 22.34375 15.316406 22.125 C 15.261719 22.019531 15.203125 21.914062 15.136719 21.8125 C 15.074219 21.710938 15.007812 21.613281 14.9375 21.515625 C 14.792969 21.320312 14.644531 21.132812 14.460938 20.960938 Z M 11.105469 20.363281 C 11.15625 20.5 11.210938 20.625 11.273438 20.75 C 11.332031 20.878906 11.398438 21 11.464844 21.121094 C 11.53125 21.238281 11.601562 21.359375 11.675781 21.476562 C 11.75 21.589844 11.828125 21.703125 11.914062 21.8125 C 12.085938 22.03125 12.285156 22.226562 12.445312 22.449219 C 12.609375 22.671875 12.746094 22.914062 12.871094 23.160156 C 12.933594 23.285156 12.992188 23.410156 13.0625 23.53125 C 13.125 23.652344 13.199219 23.769531 13.269531 23.886719 C 13.410156 24.125 13.550781 24.363281 13.707031 24.585938 C 13.863281 24.8125 14.03125 25.035156 14.207031 25.246094 C 14.382812 25.460938 14.5625 25.671875 14.761719 25.867188 L 14.792969 25.847656 C 14.691406 25.585938 14.566406 25.335938 14.4375 25.09375 C 14.308594 24.847656 14.167969 24.609375 14.019531 24.375 C 13.875 24.144531 13.710938 23.921875 13.546875 23.699219 C 13.464844 23.589844 13.382812 23.480469 13.296875 23.371094 C 13.210938 23.261719 13.121094 23.160156 13.03125 23.050781 C 12.851562 22.839844 12.683594 22.625 12.539062 22.386719 C 12.398438 22.152344 12.292969 21.890625 12.160156 21.648438 C 12.09375 21.527344 12.019531 21.410156 11.9375 21.300781 C 11.859375 21.1875 11.777344 21.074219 11.695312 20.964844 C 11.609375 20.855469 11.523438 20.75 11.429688 20.644531 C 11.335938 20.542969 11.242188 20.441406 11.136719 20.34375 Z M 9.761719 21.003906 C 9.875 21.066406 9.960938 21.144531 10.035156 21.230469 C 10.070312 21.273438 10.105469 21.316406 10.136719 21.363281 C 10.167969 21.40625 10.195312 21.457031 10.214844 21.511719 C 10.253906 21.617188 10.261719 21.742188 10.308594 21.84375 C 10.359375 21.945312 10.433594 22.027344 10.519531 22.105469 C 10.609375 22.179688 10.6875 22.261719 10.753906 22.347656 C 10.828125 22.4375 10.898438 22.523438 10.953125 22.617188 C 11.007812 22.714844 11.054688 22.816406 11.089844 22.925781 C 11.109375 22.980469 11.128906 23.035156 11.140625 23.089844 C 11.15625 23.148438 11.167969 23.207031 11.171875 23.269531 L 11.140625 23.289062 C 11.03125 23.230469 10.941406 23.15625 10.859375 23.078125 C 10.773438 23 10.699219 22.914062 10.636719 22.824219 C 10.570312 22.734375 10.523438 22.632812 10.472656 22.53125 C 10.421875 22.429688 10.382812 22.320312 10.355469 22.207031 C 10.324219 22.09375 10.28125 21.992188 10.214844 21.902344 C 10.144531 21.8125 10.039062 21.746094 9.960938 21.664062 C 9.921875 21.621094 9.890625 21.578125 9.867188 21.527344 C 9.839844 21.476562 9.816406 21.425781 9.796875 21.371094 C 9.757812 21.265625 9.730469 21.152344 9.730469 21.023438 L 9.761719 21.003906"/><g><g><g><path d="M 9.441406 -3.703125 L 3.800781 -3.703125 L 3.800781 -8.175781 L 11.605469 -8.175781 C 11.753906 -8.175781 11.878906 -8.300781 11.878906 -8.398438 L 11.878906 -11.554688 C 11.878906 -11.679688 11.753906 -11.777344 11.605469 -11.777344 L 3.800781 -11.777344 L 3.800781 -16.273438 L 9.441406 -16.273438 L 9.441406 -19.878906 L 0.273438 -19.878906 C 0.125 -19.878906 0 -19.753906 0 -19.65625 L 0 -0.222656 C 0 -0.125 0.125 0 0.273438 0 L 9.441406 0 Z M 9.441406 -3.703125" transform="translate(36.056 29.447)"/></g></g></g><g><g><g><path d="M 15.605469 -0.296875 L 8.050781 -19.730469 C 7.976562 -19.925781 7.628906 -19.925781 7.554688 -19.730469 L 0.0234375 -0.296875 C -0.0507812 -0.148438 0.0507812 0 0.273438 0 L 3.675781 0 C 3.777344 0 3.902344 -0.0507812 3.925781 -0.148438 L 7.800781 -11.230469 L 11.726562 -0.148438 C 11.753906 -0.0507812 11.878906 0 11.953125 0 L 15.378906 0 C 15.554688 0 15.679688 -0.148438 15.605469 -0.296875 Z M 15.605469 -0.296875" transform="translate(48.529 29.447)"/></g></g></g><g><g><g><path d="M 9.117188 -11.03125 C 7.703125 -11.703125 6.3125 -11.703125 6.1875 -11.703125 C 4.917969 -11.703125 3.703125 -12.449219 3.703125 -13.890625 C 3.703125 -15.480469 4.820312 -16.300781 6.1875 -16.300781 C 7.480469 -16.300781 8.574219 -15.628906 8.621094 -14.210938 C 8.621094 -14.136719 8.746094 -14.015625 8.894531 -14.015625 L 12 -14.015625 C 12.175781 -14.015625 12.300781 -14.136719 12.273438 -14.210938 C 12.226562 -17.59375 9.589844 -19.878906 6.1875 -19.878906 C 3.007812 -19.878906 0 -17.617188 0 -13.890625 C 0 -11.578125 1.167969 -9.816406 3.230469 -8.871094 C 4.671875 -8.199219 6.011719 -8.199219 6.1875 -8.199219 C 7.304688 -8.148438 8.671875 -7.253906 8.671875 -5.789062 C 8.671875 -4.472656 7.503906 -3.578125 6.1875 -3.578125 C 6.1875 -3.578125 6.1875 -3.578125 6.164062 -3.578125 L 6.164062 0 C 6.1875 0 6.1875 0 6.1875 0 C 9.367188 0 12.347656 -2.0625 12.347656 -5.789062 C 12.347656 -8.125 11.207031 -10.0625 9.117188 -11.03125 Z M 9.117188 -11.03125" transform="translate(64.927 29.447)"/></g></g></g><g><g><g><path d="M 11.28125 -16.078125 L 9.195312 -13.167969 L 4.472656 -19.804688 C 4.421875 -19.851562 4.296875 -19.878906 4.222656 -19.878906 L 0.296875 -19.878906 C 0.0234375 -19.878906 -0.0742188 -19.679688 0.0507812 -19.503906 C 2.460938 -16.125 4.917969 -12.746094 7.304688 -9.34375 L 7.304688 -0.222656 C 7.304688 -0.125 7.40625 0 7.578125 0 L 10.832031 0 C 10.984375 0 11.105469 -0.125 11.105469 -0.222656 L 11.105469 -9.34375 L 15.902344 -16.078125 Z M 11.28125 -16.078125" transform="translate(77.896 29.447)"/></g></g></g><g><g><g><path d="M 11.605469 -11.777344 L 3.800781 -11.777344 L 3.800781 -16.273438 L 9.441406 -16.273438 L 9.441406 -19.878906 L 0.273438 -19.878906 C 0.125 -19.878906 0 -19.753906 0 -19.65625 L 0 -0.222656 C 0 -0.125 0.125 0 0.273438 0 L 3.800781 0 L 3.800781 -8.175781 L 11.605469 -8.175781 C 11.753906 -8.175781 11.878906 -8.300781 11.878906 -8.398438 L 11.878906 -11.554688 C 11.878906 -11.679688 11.753906 -11.777344 11.605469 -11.777344 Z M 11.605469 -11.777344" transform="translate(94.593 29.447)"/></g></g></g><g><g><g><path d="M 11.429688 -9.890625 C 11.429688 -10.933594 10.609375 -11.777344 9.566406 -11.777344 C 8.523438 -11.777344 7.703125 -10.933594 7.703125 -9.890625 C 7.703125 -8.871094 8.523438 -8.027344 9.566406 -8.027344 C 10.609375 -8.027344 11.429688 -8.871094 11.429688 -9.890625 Z M 19.132812 -9.964844 C 19.132812 -14.910156 15.925781 -19.878906 9.589844 -19.878906 C 3.15625 -19.878906 0 -14.910156 0 -9.964844 C 0 -4.996094 3.15625 0 9.589844 0 C 15.925781 0 19.132812 -4.996094 19.132812 -9.964844 Z M 15.40625 -9.890625 C 15.40625 -6.683594 13.441406 -3.480469 9.589844 -3.480469 C 5.691406 -3.480469 3.753906 -6.683594 3.753906 -9.890625 C 3.753906 -13.144531 5.691406 -16.375 9.589844 -16.375 C 13.441406 -16.375 15.40625 -13.144531 15.40625 -9.890625 Z M 15.40625 -9.890625" transform="translate(107.066 29.447)"/></g></g></g><g><g><g><path d="M 11.429688 -9.890625 C 11.429688 -10.933594 10.609375 -11.777344 9.566406 -11.777344 C 8.523438 -11.777344 7.703125 -10.933594 7.703125 -9.890625 C 7.703125 -8.871094 8.523438 -8.027344 9.566406 -8.027344 C 10.609375 -8.027344 11.429688 -8.871094 11.429688 -9.890625 Z M 19.132812 -9.964844 C 19.132812 -14.910156 15.925781 -19.878906 9.589844 -19.878906 C 3.15625 -19.878906 0 -14.910156 0 -9.964844 C 0 -4.996094 3.15625 0 9.589844 0 C 15.925781 0 19.132812 -4.996094 19.132812 -9.964844 Z M 15.40625 -9.890625 C 15.40625 -6.683594 13.441406 -3.480469 9.589844 -3.480469 C 5.691406 -3.480469 3.753906 -6.683594 3.753906 -9.890625 C 3.753906 -13.144531 5.691406 -16.375 9.589844 -16.375 C 13.441406 -16.375 15.40625 -13.144531 15.40625 -9.890625 Z M 15.40625 -9.890625" transform="translate(127.141 29.447)"/></g></g></g><g><g><g><path d="M 3.527344 -19.878906 L 0.273438 -19.878906 C 0.125 -19.878906 0 -19.753906 0 -19.65625 L 0 -11.851562 L 3.800781 -11.851562 L 3.800781 -16.25 C 8.125 -16.472656 11.332031 -14.660156 11.332031 -9.9375 C 11.332031 -3.800781 6.210938 -3.554688 3.800781 -3.652344 L 3.800781 -8.027344 L 0 -8.027344 L 0 -0.222656 C 0 -0.125 0.125 0 0.273438 0 L 3.527344 0 C 8.472656 0 15.15625 -1.441406 15.15625 -9.9375 C 15.15625 -18.761719 8.375 -19.878906 3.527344 -19.878906 Z M 3.527344 -19.878906" transform="translate(147.217 29.447)"/></g></g></g><g><g><g><path d="M 9.117188 -11.03125 C 7.703125 -11.703125 6.3125 -11.703125 6.1875 -11.703125 C 4.917969 -11.703125 3.703125 -12.449219 3.703125 -13.890625 C 3.703125 -15.480469 4.820312 -16.300781 6.1875 -16.300781 C 7.480469 -16.300781 8.574219 -15.628906 8.621094 -14.210938 C 8.621094 -14.136719 8.746094 -14.015625 8.894531 -14.015625 L 12 -14.015625 C 12.175781 -14.015625 12.300781 -14.136719 12.273438 -14.210938 C 12.226562 -17.59375 9.589844 -19.878906 6.1875 -19.878906 C 3.007812 -19.878906 0 -17.617188 0 -13.890625 C 0 -11.578125 1.167969 -9.816406 3.230469 -8.871094 C 4.671875 -8.199219 6.011719 -8.199219 6.1875 -8.199219 C 7.304688 -8.148438 8.671875 -7.253906 8.671875 -5.789062 C 8.671875 -4.472656 7.503906 -3.578125 6.1875 -3.578125 C 6.1875 -3.578125 6.1875 -3.578125 6.164062 -3.578125 L 6.164062 0 C 6.1875 0 6.1875 0 6.1875 0 C 9.367188 0 12.347656 -2.0625 12.347656 -5.789062 C 12.347656 -8.125 11.207031 -10.0625 9.117188 -11.03125 Z M 9.117188 -11.03125" transform="translate(163.143 29.447)"/></g></g></g></svg>